<svg id="visual" viewBox="0 0 900 600" width="900" height="600" xmlns="http://www.w3.org/2000/svg" xmlns:xlink="http://www.w3.org/1999/xlink" version="1.1"><rect x="0" y="0" width="900" height="600" fill="#263138"></rect><g fill="none" stroke="#445964" stroke-width="2"><circle r="53" cx="671" cy="313"></circle><circle r="2" cx="793" cy="43"></circle><circle r="27" cx="408" cy="59"></circle><circle r="22" cx="392" cy="431"></circle><circle r="13" cx="684" cy="201"></circle><circle r="17" cx="859" cy="477"></circle><circle r="28" cx="41" cy="340"></circle><circle r="19" cx="808" cy="352"></circle><circle r="25" cx="220" cy="24"></circle><circle r="31" cx="552" cy="401"></circle><circle r="39" cx="34" cy="572"></circle><circle r="40" cx="265" cy="423"></circle><circle r="29" cx="894" cy="113"></circle><circle r="3" cx="297" cy="203"></circle><circle r="7" cx="129" cy="153"></circle><circle r="49" cx="142" cy="579"></circle><circle r="38" cx="524" cy="590"></circle><circle r="40" cx="517" cy="17"></circle><circle r="15" cx="254" cy="583"></circle></g></svg>